<svg xmlns="http://www.w3.org/2000/svg" viewBox="0 0 512 512"><!--!Font Awesome Free 6.6.0 by @fontawesome - https://fontawesome.com License - https://fontawesome.com/license/free Copyright 2024 Fonticons, Inc.--><path d="M64 96C28.7 96 0 124.7 0 160V416c0 35.3 28.7 64 64 64H448c35.3 0 64-28.7 64-64V160c0-35.3-28.7-64-64-64H64zM376 128a24 24 0 1 1 0 48 24 24 0 1 1 0-48zm-24 120c-13.3 0-24-10.7-24-24s10.7-24 24-24h64c13.3 0 24 10.7 24 24s-10.7 24-24 24H352zm-88-24c0-13.3 10.7-24 24-24h64c13.3 0 24 10.7 24 24s-10.7 24-24 24H288c-13.3 0-24-10.7-24-24zm-88 0c0-13.3 10.7-24 24-24h64c13.3 0 24 10.7 24 24s-10.7 24-24 24H112c-13.3 0-24-10.7-24-24zM64 216c0-13.3 10.7-24 24-24h64c13.3 0 24 10.7 24 24s-10.7 24-24 24H88c-13.3 0-24-10.7-24-24zm88 24c0-13.3 10.7-24 24-24h64c13.3 0 24 10.7 24 24s-10.7 24-24 24H152c-13.3 0-24-10.7-24-24zM64 304c0-13.3 10.7-24 24-24h64c13.3 0 24 10.7 24 24s-10.7 24-24 24H88c-13.3 0-24-10.7-24-24zm88 24c0-13.3 10.7-24 24-24h64c13.3 0 24 10.7 24 24s-10.7 24-24 24H152c-13.3 0-24-10.7-24-24zm88 0c0-13.3 10.7-24 24-24h64c13.3 0 24 10.7 24 24s-10.7 24-24 24H288c-13.3 0-24-10.7-24-24zm-88 96a24 24 0 1 1 0 48 24 24 0 1 1 0-48zM376 416a24 24 0 1 1 0 48 24 24 0 1 1 0-48z"/></svg> 